<svg width="320" height="320" viewBox="0 0 320 320" fill="none" xmlns="http://www.w3.org/2000/svg">
<path d="M132 123L129.5 115.5C131.333 115 136.6 114 143 114C149.4 114 154.667 116 156.5 117C156.5 119.667 156.4 125.5 156 127.5C155.5 130 150.5 135 142 134.5C135.2 134.1 132.5 126.667 132 123Z" fill="white" fill-opacity="0.35"/>
<path d="M192.5 123L195 115.5C193.167 115 187.9 114 181.5 114C175.1 114 169.833 116 168 117C168 119.667 168.1 125.5 168.5 127.5C169 130 174 135 182.5 134.5C189.3 134.1 192 126.667 192.5 123Z" fill="white" fill-opacity="0.35"/>
<path d="M144.45 127.84C146.825 127.84 148.75 125.472 148.75 122.55C148.75 119.628 146.825 117.26 144.45 117.26C142.075 117.26 140.15 119.628 140.15 122.55C140.15 125.472 142.075 127.84 144.45 127.84Z" fill="black"/>
<path d="M180.3 127.58C182.675 127.58 184.6 125.212 184.6 122.29C184.6 119.368 182.675 117 180.3 117C177.925 117 176 119.368 176 122.29C176 125.212 177.925 127.58 180.3 127.58Z" fill="black"/>
<path d="M200.71 117.91L199.87 114.12L198.03 114.54V114.15L196.71 113.67C196.43 113.57 189.77 111.23 177.21 112.14C176.04 112.12 169.37 112.14 166.44 115.14C166.43 115.15 166.42 115.16 166.41 115.18C162.9 114.14 159.48 114.76 157.64 115.27C157.6 115.23 157.58 115.18 157.54 115.14C154.61 112.14 147.94 112.12 146.77 112.14C134.21 111.24 127.55 113.57 127.27 113.67L125.95 114.15V114.54L124.11 114.12L123.27 117.91L125.95 119.42V119.97L127.4 120.91C128.26 121.47 128.92 122.35 129.24 123.37C129.39 123.84 129.52 124.35 129.66 124.88C130.77 129.09 132.62 136.13 143.76 136.13C158.63 136.13 158.85 125.54 158.95 120.45C158.96 119.94 158.97 119.47 158.99 119.03C160.35 118.68 162.66 118.31 164.96 118.91C164.96 118.93 164.96 118.95 164.96 118.98C164.98 119.43 164.99 119.93 165 120.46C165.11 125.55 165.33 136.14 180.19 136.14C191.34 136.14 193.19 129.1 194.29 124.89C194.43 124.35 194.56 123.84 194.71 123.38C195.03 122.35 195.68 121.48 196.54 120.92L197.99 119.97V119.42L200.67 117.91H200.71ZM154.97 120.38C154.85 125.89 154.72 132.14 143.78 132.14C135.72 132.14 134.61 127.94 133.54 123.87C133.38 123.27 133.23 122.7 133.07 122.18C132.88 121.59 132.62 121.03 132.31 120.5L131.68 116.71C134.61 116.18 139.63 115.62 146.58 116.13H146.68H146.78C149.28 116.07 153.38 116.59 154.68 117.93C154.93 118.19 155.03 118.44 155.01 118.78C154.99 119.27 154.97 119.81 154.96 120.38H154.97ZM190.46 123.87C189.39 127.93 188.29 132.14 180.22 132.14C169.27 132.14 169.14 125.89 169.02 120.38C169.01 119.81 169 119.27 168.97 118.78C168.95 118.44 169.05 118.19 169.3 117.93C170.54 116.66 174.3 116.13 176.81 116.13C176.95 116.13 177.08 116.13 177.2 116.13H177.3H177.4C184.36 115.62 189.37 116.17 192.3 116.71L191.67 120.5C191.37 121.03 191.1 121.59 190.91 122.18C190.75 122.7 190.6 123.27 190.44 123.87H190.46Z" fill="black"/>
</svg>
