<svg width="320" height="320" viewBox="0 0 320 320" fill="none" xmlns="http://www.w3.org/2000/svg">
<path d="M145.05 128.36C147.425 128.36 149.35 125.539 149.35 122.06C149.35 118.581 147.425 115.76 145.05 115.76C142.675 115.76 140.75 118.581 140.75 122.06C140.75 125.539 142.675 128.36 145.05 128.36Z" fill="black"/>
<path d="M182.1 128.36C184.475 128.36 186.4 125.539 186.4 122.06C186.4 118.581 184.475 115.76 182.1 115.76C179.725 115.76 177.8 118.581 177.8 122.06C177.8 125.539 179.725 128.36 182.1 128.36Z" fill="black"/>
<path d="M150.63 113.58C150.39 113.58 150.15 113.51 149.94 113.37C149.86 113.32 145.22 110.36 136.75 111.35C136.06 111.43 135.44 110.94 135.36 110.26C135.28 109.57 135.77 108.95 136.45 108.87C145.92 107.75 151.11 111.15 151.32 111.29C151.89 111.68 152.04 112.45 151.66 113.03C151.42 113.39 151.02 113.58 150.62 113.58H150.63Z" fill="black"/>
<path d="M175.57 114.69C175.24 114.69 174.9 114.56 174.66 114.3C174.19 113.8 174.21 113.01 174.71 112.54C174.9 112.36 179.45 108.16 188.98 107.71C189.67 107.69 190.25 108.21 190.29 108.9C190.32 109.59 189.79 110.18 189.1 110.21C180.56 110.61 176.46 114.33 176.42 114.37C176.18 114.59 175.87 114.7 175.57 114.7V114.69Z" fill="black"/>
<path d="M182.13 135.92C189.497 135.92 195.47 132.62 195.47 128.55C195.47 124.48 189.497 121.18 182.13 121.18C174.763 121.18 168.79 124.48 168.79 128.55C168.79 132.62 174.763 135.92 182.13 135.92Z" fill="black"/>
<path d="M172.27 129.06C172.16 129.06 172.04 129.05 171.93 129.01C160.81 125.89 155.49 128.85 155.44 128.88C154.85 129.22 154.08 129.03 153.73 128.43C153.38 127.84 153.57 127.08 154.16 126.73C154.41 126.58 160.33 123.15 172.6 126.6C173.26 126.79 173.65 127.48 173.47 128.14C173.31 128.69 172.81 129.05 172.27 129.05V129.06Z" fill="black"/>
<path d="M194.84 128.33C194.64 128.33 194.43 128.28 194.24 128.18C193.64 127.85 193.41 127.09 193.74 126.48L198.84 117.19C199.17 116.58 199.93 116.36 200.54 116.69C201.14 117.02 201.37 117.78 201.04 118.39L195.94 127.68C195.71 128.1 195.28 128.33 194.84 128.33Z" fill="black"/>
<path d="M143.75 135.92C151.118 135.92 157.09 132.62 157.09 128.55C157.09 124.48 151.118 121.18 143.75 121.18C136.383 121.18 130.41 124.48 130.41 128.55C130.41 132.62 136.383 135.92 143.75 135.92Z" fill="black"/>
<path d="M131.03 128.33C130.59 128.33 130.16 128.1 129.93 127.68L124.83 118.39C124.5 117.78 124.72 117.02 125.33 116.69C125.93 116.36 126.69 116.58 127.03 117.19L132.13 126.48C132.46 127.09 132.24 127.85 131.63 128.18C131.44 128.28 131.23 128.33 131.03 128.33Z" fill="black"/>
</svg>
