<svg width="320" height="320" viewBox="0 0 320 320" fill="none" xmlns="http://www.w3.org/2000/svg">
<circle cx="146" cy="124" r="11" fill="white"/>
<circle cx="177" cy="124" r="11" fill="white"/>
<path d="M146.16 136.91C139.03 136.91 133.22 131.11 133.22 123.97C133.22 116.83 139.02 111.03 146.16 111.03C153.3 111.03 159.1 116.83 159.1 123.97C159.1 131.11 153.3 136.91 146.16 136.91ZM146.16 113.53C140.4 113.53 135.72 118.21 135.72 123.97C135.72 129.73 140.4 134.41 146.16 134.41C151.92 134.41 156.6 129.73 156.6 123.97C156.6 118.21 151.92 113.53 146.16 113.53Z" fill="black"/>
<path d="M177.38 136.91C170.25 136.91 164.44 131.11 164.44 123.97C164.44 116.83 170.24 111.03 177.38 111.03C184.52 111.03 190.32 116.83 190.32 123.97C190.32 131.11 184.52 136.91 177.38 136.91ZM177.38 113.53C171.62 113.53 166.94 118.21 166.94 123.97C166.94 129.73 171.62 134.41 177.38 134.41C183.14 134.41 187.82 129.73 187.82 123.97C187.82 118.21 183.14 113.53 177.38 113.53Z" fill="black"/>
<path d="M179.39 126.22L182.31 125.8L184.69 125.46C184.79 124.98 184.84 124.48 184.84 123.97C184.84 119.85 181.5 116.51 177.38 116.51C173.26 116.51 169.92 119.85 169.92 123.97C169.92 128.09 173.26 131.43 177.38 131.43C179.15 131.43 180.78 130.81 182.06 129.78L181.16 128.59L179.39 126.23V126.22Z" fill="black"/>
<path d="M148.17 126.22L151.09 125.8L153.47 125.46C153.57 124.98 153.62 124.48 153.62 123.97C153.62 119.85 150.28 116.51 146.16 116.51C142.04 116.51 138.7 119.85 138.7 123.97C138.7 128.09 142.04 131.43 146.16 131.43C147.93 131.43 149.56 130.81 150.84 129.78L149.94 128.59L148.17 126.23V126.22Z" fill="black"/>
<path d="M186.14 110.04C185.79 110.04 185.44 109.97 185.1 109.81C177.86 106.51 171.08 109.75 171.02 109.78C169.78 110.39 168.28 109.88 167.67 108.64C167.06 107.4 167.57 105.9 168.81 105.3C169.17 105.12 177.8 100.99 187.17 105.27C188.43 105.84 188.98 107.33 188.41 108.58C187.99 109.5 187.08 110.04 186.13 110.04H186.14Z" fill="black"/>
<path d="M153.62 110.04C153.27 110.04 152.92 109.97 152.58 109.81C145.34 106.51 138.56 109.75 138.5 109.78C137.26 110.39 135.76 109.88 135.15 108.64C134.54 107.4 135.05 105.9 136.29 105.3C136.65 105.12 145.28 100.99 154.65 105.27C155.91 105.84 156.46 107.33 155.89 108.58C155.47 109.5 154.56 110.04 153.61 110.04H153.62Z" fill="black"/>
</svg>
