<svg width="320" height="320" viewBox="0 0 320 320" fill="none" xmlns="http://www.w3.org/2000/svg">
<path d="M144.7 130.05C147.075 130.05 149 127.229 149 123.75C149 120.271 147.075 117.45 144.7 117.45C142.325 117.45 140.4 120.271 140.4 123.75C140.4 127.229 142.325 130.05 144.7 130.05Z" fill="black"/>
<path d="M181.75 130.05C184.125 130.05 186.05 127.229 186.05 123.75C186.05 120.271 184.125 117.45 181.75 117.45C179.375 117.45 177.45 120.271 177.45 123.75C177.45 127.229 179.375 130.05 181.75 130.05Z" fill="black"/>
<path d="M136.29 114.53C135.77 114.53 135.28 114.2 135.11 113.68C134.89 113.03 135.24 112.32 135.89 112.1C144.93 109.04 150.7 111.29 150.94 111.39C151.58 111.65 151.89 112.38 151.63 113.02C151.37 113.66 150.65 113.97 150.01 113.71C149.92 113.67 144.76 111.74 136.69 114.47C136.56 114.51 136.42 114.54 136.29 114.54V114.53Z" fill="black"/>
<path d="M188.88 114.16C188.77 114.16 188.65 114.15 188.54 114.11C180.31 111.79 175.25 114.02 175.2 114.04C174.57 114.33 173.83 114.04 173.54 113.42C173.25 112.8 173.52 112.06 174.15 111.77C174.39 111.66 180.03 109.11 189.22 111.7C189.88 111.89 190.27 112.58 190.08 113.24C189.92 113.79 189.42 114.15 188.88 114.15V114.16Z" fill="black"/>
<circle cx="146" cy="121" r="1" fill="white"/>
<circle cx="183" cy="121" r="1" fill="white"/>
</svg>
