<svg width="320" height="320" viewBox="0 0 320 320" fill="none" xmlns="http://www.w3.org/2000/svg">
<path d="M122.87 90C126.33 71.36 142.68 57.25 162.33 57.25C181.98 57.25 198.54 71.55 201.85 90.38V93.88L122.09 94.4L122.87 90.01V90Z" fill="#E7B431"/>
<path d="M120.59 95.65L121.64 89.77C125.28 70.2 142.39 56 162.33 56C182.27 56 199.6 70.37 203.09 90.16L203.11 90.38V95.12L120.6 95.65H120.59ZM124.1 90.22L123.58 93.13L200.6 92.63V90.48C197.28 71.94 181.2 58.49 162.33 58.49C143.46 58.49 127.52 71.83 124.1 90.21V90.22Z" fill="black"/>
<path d="M203.24 92.12C165.78 81.23 132.06 88.41 121.08 91.37C118.87 91.96 117.34 94.11 117.34 96.57V104.25C117.34 107.72 120.34 110.29 123.45 109.46C135.86 106.15 165.77 100.41 199.98 109.97C202.89 110.78 205.8 108.64 206.14 105.4L206.93 97.92C207.21 95.27 205.64 92.81 203.26 92.12H203.24Z" fill="#E7B431"/>
<path d="M201.21 111.4C200.68 111.4 200.15 111.33 199.63 111.18C165.35 101.6 135.15 107.63 123.76 110.67C122 111.14 120.14 110.76 118.66 109.63C117.04 108.39 116.08 106.38 116.08 104.25V96.57C116.08 93.54 118 90.9 120.75 90.16C133.27 86.79 166.4 80.11 203.58 90.92C206.57 91.79 208.49 94.79 208.15 98.06L207.37 105.54C207.16 107.53 206.13 109.29 204.55 110.37C203.55 111.05 202.38 111.4 201.21 111.4ZM161.05 103.49C172.8 103.49 186.21 104.83 200.31 108.77C201.29 109.04 202.29 108.87 203.15 108.29C204.12 107.63 204.76 106.53 204.89 105.27L205.67 97.79C205.88 95.76 204.69 93.84 202.89 93.32C166.32 82.69 133.72 89.26 121.4 92.58C119.74 93.03 118.58 94.67 118.58 96.58V104.26C118.58 105.61 119.18 106.88 120.18 107.65C121.05 108.32 122.09 108.53 123.11 108.26C130.02 106.42 143.72 103.49 161.04 103.49H161.05Z" fill="black"/>
<path d="M128.46 107.78C127.86 107.78 127.33 107.35 127.23 106.73C127.18 106.44 126.05 99.48 125.84 94.6C125.81 93.91 126.35 93.33 127.04 93.3C127.71 93.27 128.31 93.81 128.34 94.5C128.54 99.24 129.69 106.27 129.7 106.34C129.81 107.02 129.35 107.66 128.67 107.78C128.6 107.79 128.53 107.8 128.47 107.8L128.46 107.78Z" fill="black"/>
<path d="M141.14 101.39C140.56 101.39 140.05 100.99 139.92 100.4C139.16 96.87 139.42 88.9299 139.43 88.5899C139.45 87.8999 140.05 87.3399 140.72 87.3799C141.41 87.3999 141.95 87.9799 141.93 88.6699C141.93 88.7499 141.67 96.6399 142.36 99.8699C142.51 100.54 142.08 101.21 141.4 101.35C141.31 101.37 141.22 101.38 141.14 101.38V101.39Z" fill="black"/>
<path d="M155.6 104.61C154.91 104.61 154.35 104.05 154.35 103.36V91.2C154.35 90.51 154.91 89.95 155.6 89.95C156.29 89.95 156.85 90.51 156.85 91.2V103.36C156.85 104.05 156.29 104.61 155.6 104.61Z" fill="black"/>
<path d="M171.58 104.87C171.58 104.87 171.53 104.87 171.5 104.87C170.56 104.81 170.17 100.737 170.33 92.65C170.34 91.96 170.95 91.45 171.6 91.42C172.29 91.43 172.84 92 172.82 92.69C172.74 96.55 172.68 102.23 172.77 103.24C172.81 103.38 172.83 103.53 172.82 103.69C172.78 104.35 172.23 104.86 171.57 104.86L171.58 104.87ZM171.66 102.37C171.77 102.37 171.88 102.4 171.99 102.43C171.89 102.4 171.78 102.37 171.66 102.37Z" fill="black"/>
<path d="M182.57 97.49C182.57 97.49 182.52 97.49 182.5 97.49C181.81 97.45 181.28 96.86 181.32 96.17L181.78 88.3C181.82 87.61 182.41 87.09 183.1 87.12C183.79 87.16 184.32 87.75 184.28 88.44L183.82 96.31C183.78 96.98 183.23 97.49 182.57 97.49Z" fill="black"/>
<path d="M190.38 107.25C190.38 107.25 190.28 107.25 190.23 107.25C189.54 107.17 189.05 106.55 189.13 105.86C189.13 105.79 189.95 98.76 190.21 94.33C190.25 93.64 190.84 93.1299 191.53 93.1599C192.22 93.1999 192.74 93.7899 192.7 94.4799C192.43 98.9799 191.61 106.08 191.61 106.15C191.54 106.79 191 107.26 190.37 107.26L190.38 107.25Z" fill="black"/>
<path d="M199.08 103.07C199.03 103.07 198.98 103.07 198.93 103.07C198.24 102.99 197.76 102.36 197.84 101.68C198.44 96.68 198.66 90.84 198.66 90.78C198.68 90.09 199.29 89.52 199.95 89.58C200.64 89.6 201.18 90.18 201.15 90.87C201.15 90.93 200.93 96.88 200.31 101.98C200.23 102.61 199.69 103.08 199.07 103.08L199.08 103.07Z" fill="black"/>
<path d="M158.99 82.62C158.3 82.62 157.74 82.06 157.74 81.37C157.7 67.52 160.21 62.1 160.32 61.87C160.62 61.25 161.36 60.98 161.99 61.28C162.61 61.58 162.88 62.32 162.58 62.94C162.54 63.03 160.2 68.24 160.24 81.36C160.24 82.05 159.68 82.61 158.99 82.61V82.62Z" fill="black"/>
<path d="M169.38 87.74H169.36C168.67 87.74 168.12 87.17 168.12 86.48C168.12 86.4 168.2 78.21 166.88 73.68C166.69 73.02 167.07 72.32 167.73 72.13C168.39 71.94 169.09 72.32 169.28 72.98C170.71 77.87 170.63 86.16 170.63 86.51C170.63 87.2 170.06 87.75 169.38 87.75V87.74Z" fill="black"/>
<path d="M185.69 74.57C185.15 74.57 184.65 74.22 184.49 73.68C184.47 73.63 182.87 68.34 177.73 61.5C177.32 60.95 177.43 60.17 177.98 59.75C178.53 59.34 179.32 59.45 179.73 60C185.16 67.23 186.82 72.74 186.89 72.97C187.08 73.63 186.71 74.32 186.04 74.52C185.92 74.55 185.8 74.57 185.69 74.57Z" fill="black"/>
<path d="M145.2 88.1099C145.14 88.1099 145.08 88.1099 145.01 88.0999C144.33 87.9999 143.86 87.3599 143.96 86.6799L145.25 78.0599C145.35 77.3799 145.99 76.8899 146.67 77.0099C147.35 77.1099 147.82 77.7499 147.72 78.4299L146.43 87.0499C146.34 87.6699 145.8 88.1199 145.2 88.1199V88.1099Z" fill="black"/>
<path d="M127.77 90.75C127.71 90.75 127.66 90.75 127.6 90.74C126.92 90.65 126.44 90.02 126.53 89.33C126.56 89.14 127.2 84.6 130.47 78.42C130.79 77.81 131.55 77.58 132.16 77.9C132.77 78.22 133 78.98 132.68 79.59C129.61 85.38 129.01 89.62 129 89.66C128.92 90.29 128.38 90.74 127.76 90.74L127.77 90.75Z" fill="black"/>
<path d="M140.88 73.15C140.7 73.15 140.52 73.11 140.35 73.03C139.72 72.74 139.45 72 139.74 71.37C143.79 62.66 152.52 57.17 153.47 56.95C154.15 56.79 154.81 57.21 154.97 57.88C155.11 58.5 154.78 59.11 154.2 59.33C153.79 59.56 145.86 64.14 142 72.42C141.79 72.88 141.34 73.14 140.87 73.14L140.88 73.15Z" fill="black"/>
<path d="M191.47 90.26C191.47 90.26 191.42 90.26 191.39 90.26C190.7 90.22 190.18 89.63 190.22 88.94L190.52 83.91C190.55 83.35 190.14 82.84 189.58 82.77L177.63 81.11C177.31 81.06 177.01 81.16 176.77 81.37C176.53 81.58 176.4 81.87 176.4 82.19C176.4 84.19 176.4 86.63 176.4 86.85C176.4 87.54 175.86 88.11 175.17 88.12C174.53 88.12 173.91 87.58 173.9 86.89C173.9 86.66 173.9 84.21 173.9 82.19C173.9 81.15 174.35 80.17 175.13 79.49C175.91 78.81 176.95 78.5 177.98 78.64L189.93 80.3C191.77 80.56 193.13 82.21 193.02 84.07L192.72 89.1C192.68 89.76 192.13 90.27 191.47 90.27V90.26Z" fill="black"/>
</svg>
