<svg width="320" height="320" viewBox="0 0 320 320" fill="none" xmlns="http://www.w3.org/2000/svg">
<g clip-path="url(#clip0_105_537)">
<path d="M148.2 61.7801C147.52 62.0101 130.46 66.6301 124.19 87.6001L123.24 95.7501V107.47C123.24 107.47 119.55 113.23 124.69 116.39C129.83 119.55 134.08 121.85 143.86 112.47C153.64 103.09 162.26 103.05 162.26 103.05C162.26 103.05 173.69 104.14 183.89 115.9C183.89 115.9 192.2 121.62 201.28 115.38C201.28 115.38 205.82 111.33 201.28 106.35C201.28 106.35 202.19 89.8701 197.2 79.1801C192.21 68.4901 180.44 62.1701 170.73 60.5101C170.73 60.5101 172.59 54.0001 162.26 53.2401C151.93 52.4801 153.79 60.3501 153.79 60.3501L148.19 61.7701L148.2 61.7801Z" fill="#FDEFDF"/>
<path d="M168.5 88.5001C152.5 86.5001 139.167 93.6667 134.5 97.5001C129.5 100 122.5 109.5 122.5 110.5C122.5 111.5 123 117 130 118.5C137 120 138.5 118.5 147.5 110.5C156.5 102.5 159.5 102.5 168.5 104C177.5 105.5 185 118.5 193 118.5C201 118.5 205 114.5 203.5 109.5C202 104.5 188.5 91.0001 168.5 88.5001Z" fill="#1A4730"/>
<path d="M171 60.5H156C154.5 60 153.5 53 164 53.5C172.4 53.9 172.167 58.3334 171 60.5Z" fill="#1A4730"/>
<path d="M202.17 107.61C201.48 107.61 200.92 107.05 200.92 106.36V95.75C200.92 76.82 185.52 61.41 166.58 61.41H159.72C140.78 61.41 125.38 76.82 125.38 95.75V106.36C125.38 107.05 124.82 107.61 124.13 107.61C123.44 107.61 122.88 107.05 122.88 106.36V95.75C122.88 75.44 139.41 58.91 159.72 58.91H166.58C186.89 58.91 203.42 75.44 203.42 95.75V106.36C203.42 107.05 202.86 107.61 202.17 107.61Z" fill="black"/>
<path d="M155.98 61.61C155.69 61.61 155.4 61.51 155.16 61.3C154.03 60.32 153.43 59.13 153.43 57.88C153.43 54.58 157.7 51.99 163.15 51.99C168.6 51.99 172.87 54.58 172.87 57.88C172.87 59.02 172.36 60.12 171.4 61.05C170.91 61.53 170.11 61.52 169.63 61.02C169.15 60.52 169.16 59.73 169.66 59.25C170.13 58.79 170.37 58.33 170.37 57.87C170.37 56.27 167.28 54.48 163.15 54.48C159.02 54.48 155.93 56.27 155.93 57.87C155.93 58.51 156.4 59.05 156.8 59.4C157.32 59.85 157.38 60.64 156.92 61.16C156.67 61.45 156.33 61.59 155.98 61.59V61.61Z" fill="black"/>
<path d="M192.55 120.17C189.05 120.17 185.55 118.84 182.69 115.55C173.64 105.11 165.31 104.34 164.85 104.3H161.41C161.41 104.3 152.87 104.85 143.61 115.55C137.69 122.38 128.97 120.76 123.36 116.37C120.9 114.44 120.29 110.92 121.99 108.37C130.78 95.1001 145.52 87.1801 161.41 87.1801H164.89C180.79 87.1801 195.52 95.1001 204.31 108.37C206 110.93 205.4 114.45 202.94 116.37C200.04 118.64 196.3 120.17 192.55 120.17ZM164.89 101.8H164.94C165.33 101.82 174.55 102.33 184.58 113.91C190.16 120.35 198.02 117.04 201.4 114.4C202.84 113.27 203.21 111.22 202.23 109.74C193.9 97.1701 179.95 89.6701 164.89 89.6701H161.41C146.35 89.6701 132.4 97.1701 124.07 109.74C123.09 111.22 123.45 113.26 124.9 114.4C128.28 117.05 136.14 120.35 141.72 113.91C151.76 102.33 160.97 101.82 161.36 101.8H164.89Z" fill="black"/>
<path d="M189.3 96.68C188.61 96.68 188.05 96.12 188.05 95.43V79.09C188.05 69.98 179.77 64.03 179.69 63.97C179.13 63.57 178.99 62.79 179.39 62.23C179.79 61.67 180.56 61.53 181.13 61.93C181.51 62.2 190.55 68.67 190.55 79.09V95.43C190.55 96.12 189.99 96.68 189.3 96.68Z" fill="black"/>
<path d="M136.97 96.68C136.28 96.68 135.72 96.12 135.72 95.43V79.09C135.72 68.67 144.76 62.2 145.14 61.93C145.71 61.53 146.48 61.67 146.88 62.23C147.28 62.79 147.14 63.57 146.58 63.97C146.5 64.03 138.22 69.98 138.22 79.09V95.43C138.22 96.12 137.66 96.68 136.97 96.68Z" fill="black"/>
<path fill-rule="evenodd" clip-rule="evenodd" d="M160.1 65.84V77.42H160.852L162.86 70.48C162.98 70.05 163.38 69.76 163.82 69.76C164.27 69.76 164.66 70.06 164.78 70.49L166.705 77.42H167.9V75.67C167.9 75.12 168.35 74.67 168.9 74.67C169.45 74.67 169.9 75.12 169.9 75.67V78.42C169.9 78.97 169.45 79.42 168.9 79.42H167.26L167.907 81.75H168.84C169.39 81.75 169.84 82.2 169.84 82.75C169.84 83.3 169.39 83.75 168.84 83.75H165.45C164.9 83.75 164.45 83.3 164.45 82.75C164.45 82.2 164.9 81.75 165.45 81.75H165.831L165.185 79.42H162.352L161.678 81.75H162.04C162.59 81.75 163.04 82.2 163.04 82.75C163.04 83.3 162.59 83.75 162.04 83.75L160.35 83.75C160.348 83.75 160.347 83.75 160.345 83.75H158.65C158.1 83.75 157.65 83.3 157.65 82.75C157.65 82.2 158.1 81.75 158.65 81.75H159.598L160.273 79.42H157.41C156.86 79.42 156.41 78.97 156.41 78.42C156.41 77.87 156.86 77.42 157.41 77.42H158.1V65.84C158.1 65.29 158.55 64.84 159.1 64.84C159.65 64.84 160.1 65.29 160.1 65.84ZM162.931 77.42H164.631L163.8 74.42L162.931 77.42Z" fill="#1A4730"/>
</g>
<defs>
<clipPath id="clip0_105_537">
<rect width="212.03" height="216.12" fill="white" transform="translate(54 52)"/>
</clipPath>
</defs>
</svg>
