<svg width="320" height="320" viewBox="0 0 320 320" fill="none" xmlns="http://www.w3.org/2000/svg">
<g clip-path="url(#clip0_105_534)">
<path d="M120.84 118.14C120.84 118.14 118.5 110.67 119.49 106.61C119.49 106.61 115.93 98.01 117.89 92.84C117.89 92.84 114.48 78.17 126.98 70.46C127.95 69.86 128.45 68.73 128.22 67.61C127.99 66.49 127.77 65.02 127.82 63.72C127.87 62.3 129.01 61.19 130.43 61.04C131.99 60.88 134.68 60.27 138.77 58.32C146.02 54.88 149.59 49.47 161.88 53.4C161.88 53.4 170.85 46.52 177.86 49.96C184.87 53.4 178.84 54.88 187.57 60.04C196.3 65.2 196.79 67.05 199 71.35C201.21 75.65 205.64 74.42 207.11 78.97C207.11 78.97 203.34 80.2 204.18 82.17C204.18 82.17 205.18 89.18 205.77 96.31C206.36 103.44 201.1 118.34 201.1 118.34L197.3 118.6C197.3 118.6 195.43 114.17 191.62 111.59C191.62 111.59 189.42 97.15 189.42 91.25C189.42 91.25 178.67 80.43 175.19 76.74C175.19 76.74 163.11 82.52 149.83 76.99C149.83 76.99 139.38 84.12 135.45 85.35C131.52 86.58 131.27 94.94 129.3 96.66C127.33 98.38 129.5 107.58 128.42 111.46C127.34 115.34 124.27 122.42 124.27 122.42L120.82 118.15L120.84 118.14Z" fill="black"/>
</g>
<defs>
<clipPath id="clip0_105_534">
<rect width="208.23" height="222.53" fill="white" transform="translate(56 49)"/>
</clipPath>
</defs>
</svg>
