<svg width="320" height="320" viewBox="0 0 320 320" fill="none" xmlns="http://www.w3.org/2000/svg">
<path d="M265.65 268.46L265.78 269.83H54.25L54.68 268.25C59.17 251.85 78.61 216.78 103.21 209.99C103.57 209.89 103.92 209.79 104.28 209.69L104.97 212.08C104.61 212.19 104.24 212.3 103.87 212.4C82 218.44 62.91 249.99 57.55 267.33H141.51V257.69H178.73V251.54H181.23V267.33H263C260.62 250.88 242.05 218.61 219.54 212.4C214.3 210.96 209.79 209.27 205.91 207.53C206.35 208.97 206.73 210.46 207.06 211.97L204.65 212.51C203.62 207.78 202.09 203.34 199.81 200.15C194.85 193.21 191.28 190.45 189.35 189.37C189.88 193.94 190.75 204.91 188.37 213.6L185.96 212.98C186.91 209.49 187.31 205.53 187.41 201.8C187.25 202.22 187.07 202.64 186.88 203.06L186.03 202.64C186.98 200.61 187.52 198.45 187.18 196.22C187.15 196.02 187.22 195.87 187.34 195.76C187.12 191.1 186.61 187.71 186.6 187.62L186.36 186.07L187.93 186.19C188.46 186.22 193.42 186.9 201.84 198.7C202.98 200.29 203.95 202.16 204.76 204.2C208.98 206.27 214.09 208.31 220.2 209.99C243.63 216.46 263.93 249.92 265.65 268.46ZM178.73 267.33V265.32H144.01V267.33H178.73Z" fill="black"/>
<path d="M263 267.33H181.23V234.3L189.44 230.95C189.92 230.75 190.46 230.78 190.91 231.01L205.81 238.76C206.14 238.93 206.5 239.01 206.86 239.01C207.26 239.01 207.65 238.91 208.01 238.7C208.69 238.3 209.1 237.58 209.12 236.8C209.22 232.6 209.19 221.78 207.06 211.97C206.73 210.46 206.35 208.97 205.91 207.53C209.79 209.27 214.3 210.96 219.54 212.4C242.05 218.61 260.62 250.88 263 267.33Z" fill="#1C2845"/>
<path d="M207.06 211.97C209.19 221.78 209.22 232.6 209.12 236.8C209.1 237.58 208.69 238.3 208.01 238.7C207.65 238.91 207.26 239.01 206.86 239.01C206.5 239.01 206.14 238.93 205.81 238.76L190.91 231.01C190.46 230.78 189.92 230.75 189.44 230.95L181.23 234.3V237.76H144.01V243.91H141.51V234.3L133.3 230.95C132.82 230.75 132.29 230.78 131.83 231.01L116.93 238.76C116.6 238.93 116.24 239.01 115.88 239.01C115.49 239.01 115.09 238.91 114.73 238.7C114.05 238.3 113.64 237.58 113.62 236.79C113.52 232 113.56 218.59 116.71 207.9C113.31 209.38 109.41 210.82 104.97 212.08L104.28 209.69C109.54 208.18 114.03 206.42 117.82 204.63C118.67 202.42 119.68 200.4 120.9 198.7C129.32 186.9 134.28 186.22 134.82 186.19L136.38 186.07L136.14 187.62C136.13 187.69 135.82 189.77 135.58 192.89C136.09 195.25 136.65 197.6 137.31 199.93C138.08 202.65 138.97 205.3 140.63 207.62C143.2 211.25 147.09 213.88 151.25 215.35C156.39 217.16 161.99 217.25 167.33 216.44C169.97 216.03 172.68 215.51 175.18 214.56C177.68 213.62 179.51 211.89 181.15 209.83C182.83 207.71 184.78 205.28 186.03 202.64L186.88 203.06C186.68 203.47 186.48 203.88 186.25 204.28C184.81 206.85 182.97 209.3 181.04 211.52C179.24 213.6 177.12 215.02 174.49 215.85C171.77 216.72 168.9 217.26 166.06 217.61C160.6 218.28 154.89 217.96 149.76 215.84C145.48 214.08 141.61 211.16 139.15 207.2C137.72 204.91 136.93 202.32 136.21 199.73C135.91 198.65 135.65 197.56 135.38 196.47C135.19 201.33 135.35 207.4 136.68 212.55C138.12 214.1 148.06 224.21 161.3 224.55C169.88 224.78 178.19 220.88 185.96 212.98L188.37 213.6C187.64 216.29 186.59 218.77 185.12 220.77C182.36 224.52 180.89 229.26 180.22 232.02L188.5 228.63C189.02 228.42 189.56 228.32 190.11 228.32C190.78 228.32 191.45 228.48 192.06 228.79L206.63 236.37C206.71 232.02 206.64 221.72 204.65 212.51L207.06 211.97ZM183.1 219.29C183.28 219.04 183.45 218.78 183.62 218.52C176.76 224.19 169.52 227.06 162.01 227.06C161.74 227.06 161.48 227.05 161.22 227.05C151.31 226.78 143.31 221.65 138.75 217.9C139.03 218.38 139.32 218.85 139.64 219.29C142.25 222.84 143.78 227.13 144.62 230.14H178.12C178.96 227.13 180.49 222.84 183.1 219.29ZM134.24 228.63L142.52 232.02C141.85 229.26 140.38 224.52 137.62 220.77C131.41 212.32 132.7 195.36 133.39 189.37C131.46 190.45 127.89 193.21 122.93 200.15C116.21 209.56 115.99 229.78 116.11 236.37L130.68 228.79C131.79 228.22 133.08 228.16 134.24 228.63Z" fill="black"/>
<path d="M204.65 212.51C206.64 221.72 206.71 232.02 206.63 236.37L192.06 228.79C191.45 228.48 190.78 228.32 190.11 228.32C189.56 228.32 189.02 228.42 188.5 228.63L180.22 232.02C180.89 229.26 182.36 224.52 185.12 220.77C186.59 218.77 187.64 216.29 188.37 213.6C190.75 204.91 189.88 193.94 189.35 189.37C191.28 190.45 194.85 193.21 199.81 200.15C202.09 203.34 203.62 207.78 204.65 212.51Z" fill="#1C2845"/>
<path d="M186.88 203.06C187.07 202.64 187.25 202.22 187.41 201.8C187.31 205.53 186.91 209.49 185.96 212.98C178.19 220.88 169.88 224.78 161.3 224.55C148.06 224.21 138.12 214.1 136.68 212.55C135.35 207.4 135.19 201.33 135.38 196.47C135.65 197.56 135.91 198.65 136.21 199.73C136.93 202.32 137.72 204.91 139.15 207.2C141.61 211.16 145.48 214.08 149.76 215.84C154.89 217.96 160.6 218.28 166.06 217.61C168.9 217.26 171.77 216.72 174.49 215.85C177.12 215.02 179.24 213.6 181.04 211.52C182.97 209.3 184.81 206.85 186.25 204.28C186.48 203.88 186.68 203.47 186.88 203.06Z" fill="white"/>
<path d="M183.62 218.52C183.45 218.78 183.28 219.04 183.1 219.29C180.49 222.84 178.96 227.13 178.12 230.14H144.62C143.78 227.13 142.25 222.84 139.64 219.29C139.32 218.85 139.03 218.38 138.75 217.9C143.31 221.65 151.31 226.78 161.22 227.05C161.48 227.05 161.74 227.06 162.01 227.06C169.52 227.06 176.76 224.19 183.62 218.52Z" fill="white"/>
<path d="M181.23 237.76V251.54H178.73H144.01V257.69H141.51V243.91H144.01H178.73V237.76H181.23Z" fill="black"/>
<path d="M178.73 265.32H144.01V267.33H178.73V265.32Z" fill="white"/>
<path d="M178.73 251.54H144.01V257.69H178.73V251.54Z" fill="white"/>
<path d="M178.73 237.76H144.01V243.91H178.73V237.76Z" fill="white"/>
<path d="M142.52 232.02L134.24 228.63C133.08 228.16 131.79 228.22 130.68 228.79L116.11 236.37C115.99 229.78 116.21 209.56 122.93 200.15C127.89 193.21 131.46 190.45 133.39 189.37C132.7 195.36 131.41 212.32 137.62 220.77C140.38 224.52 141.85 229.26 142.52 232.02Z" fill="#1C2845"/>
<path d="M141.51 257.69V267.33H57.55C62.91 249.99 82 218.44 103.87 212.4C104.24 212.3 104.61 212.19 104.97 212.08C109.41 210.82 113.31 209.38 116.71 207.9C113.56 218.59 113.52 232 113.62 236.79C113.64 237.58 114.05 238.3 114.73 238.7C115.09 238.91 115.49 239.01 115.88 239.01C116.24 239.01 116.6 238.93 116.93 238.76L131.83 231.01C132.29 230.78 132.82 230.75 133.3 230.95L141.51 234.3V257.69Z" fill="#1C2845"/>
</svg>
