<svg width="320" height="320" viewBox="0 0 320 320" fill="none" xmlns="http://www.w3.org/2000/svg">
<g clip-path="url(#clip0_9_7796)">
<path d="M197.03 223.63C198.25 223.63 199.25 224.62 199.25 225.84C199.25 227.06 198.25 228.06 197.03 228.06H182.11C180.89 228.06 179.9 227.07 179.9 225.84C179.9 224.61 180.89 223.63 182.11 223.63H197.03Z" fill="#F4FC9B"/>
<path d="M212.05 170.52C215.66 172.98 217.82 174.68 217 178.63C216.74 179.9 216.67 181.17 216.6 182.28C216.43 185.17 216.24 186.72 214.27 187.52C212.53 188.23 208.05 190.96 203.32 193.86C199.28 196.33 195.1 198.88 193.64 199.51C193.24 199.69 187.35 202.43 182.36 204.8C184.2 203.14 190.48 197.34 200.77 186.48C208.67 178.14 210.9 172.95 211.36 170.05C211.59 170.21 211.82 170.37 212.05 170.52Z" fill="#715B53"/>
<path d="M216.03 254.16C216.03 254.85 216.59 255.41 217.28 255.41H256.5C257.19 255.41 257.75 254.85 257.75 254.16C257.75 253.47 257.19 252.91 256.5 252.91H217.28C216.59 252.91 216.03 253.47 216.03 254.16ZM216.03 239.71C216.03 240.4 216.59 240.96 217.28 240.96H251.72C252.41 240.96 252.97 240.4 252.97 239.71C252.97 239.02 252.41 238.46 251.72 238.46H217.28C216.59 238.46 216.03 239.02 216.03 239.71ZM216.03 225.26C216.03 225.95 216.59 226.51 217.28 226.51H245.25C245.94 226.51 246.5 225.95 246.5 225.26C246.5 224.57 245.94 224.01 245.25 224.01H217.28C216.59 224.01 216.03 224.57 216.03 225.26ZM184.74 207.97C184.05 207.97 183.49 208.53 183.49 209.22C183.49 209.91 184.05 210.47 184.74 210.47H210.22C210.91 210.47 211.47 209.91 211.47 209.22C211.47 208.53 210.91 207.97 210.22 207.97H184.74ZM201.09 199.39C200.4 199.39 199.84 199.95 199.84 200.64C199.84 201.33 200.4 201.89 201.09 201.89H210.22C210.91 201.89 211.47 201.33 211.47 200.64C211.47 199.95 210.91 199.39 210.22 199.39H201.09ZM197.03 230.56C199.63 230.56 201.75 228.44 201.75 225.84C201.75 223.24 199.63 221.13 197.03 221.13H182.11C179.51 221.13 177.4 223.24 177.4 225.84C177.4 228.44 179.51 230.56 182.11 230.56H197.03ZM236.74 211.33C237.43 211.33 237.99 210.77 237.99 210.08C237.99 209.39 237.43 208.83 236.74 208.83H220.59C219.9 208.83 219.34 209.39 219.34 210.08C219.34 210.77 219.9 211.33 220.59 211.33H236.74ZM164.17 261.33H205.32C206.01 261.33 206.57 260.77 206.57 260.08C206.57 259.39 206.01 258.83 205.32 258.83H164.17C163.48 258.83 162.92 259.39 162.92 260.08C162.92 260.77 163.48 261.33 164.17 261.33ZM205.32 231.65H164.17C163.48 231.65 162.92 232.21 162.92 232.9C162.92 233.59 163.48 234.15 164.17 234.15H205.32C206.01 234.15 206.57 233.59 206.57 232.9C206.57 232.21 206.01 231.65 205.32 231.65ZM212.51 264.22L161.84 263.68V263.64L160.12 263.66H159.64V220.55L163.16 214.68L162.97 214.57C165.8 214.12 168.61 213.54 171.38 212.79C172.15 212.58 172.92 212.36 173.69 212.13C174.33 211.93 174.99 211.73 175.53 211.32C176 210.96 176.34 210.44 176.72 209.97L176.91 210.29C178.48 209.34 190.28 203.82 194.66 201.79C196.26 201.1 200.32 198.62 204.62 195.99C207.7 194.11 211.07 192.05 213.28 190.82C214.92 191.59 220.59 194.38 227.5 199.44C226.13 199.55 224.53 199.85 222.84 200.5C218.79 197.28 211.39 194.07 211.06 193.93C210.43 193.66 209.69 193.95 209.42 194.58C209.14 195.22 209.44 195.95 210.07 196.23C210.14 196.26 216.36 198.95 220.3 201.72C218.4 202.84 216.47 204.46 214.68 206.8C214.26 207.35 214.37 208.13 214.92 208.55C215.14 208.72 215.41 208.81 215.68 208.81C216.05 208.81 216.42 208.64 216.67 208.32C218.72 205.63 220.98 204.04 223.09 203.11C223.13 203.09 223.16 203.08 223.19 203.06C226.69 201.55 229.78 201.84 230.88 202.02C245.13 213.41 262.44 233.73 261.45 264.75L215.14 264.25C210.22 248.45 215.38 217.65 215.44 217.33C215.55 216.65 215.1 216.01 214.41 215.89C213.74 215.78 213.09 216.23 212.97 216.91C212.75 218.2 207.81 247.68 212.51 264.22ZM164.17 217.39C163.48 217.39 162.92 217.95 162.92 218.64C162.92 219.33 163.48 219.89 164.17 219.89H205.32C206.01 219.89 206.57 219.33 206.57 218.64C206.57 217.95 206.01 217.39 205.32 217.39H164.17ZM206.57 247.17C206.57 246.48 206.01 245.92 205.32 245.92H164.17C163.48 245.92 162.92 246.48 162.92 247.17C162.92 247.86 163.48 248.42 164.17 248.42H205.32C206.01 248.42 206.57 247.86 206.57 247.17Z" fill="#DAB797"/>
<path d="M208.9 168.18C209.05 168.85 209.61 173.52 198.95 184.76C186.72 197.68 180.2 203.38 180.14 203.44L181.63 205.15C178.77 206.52 176.34 207.71 175.62 208.15L176.18 209.09C175.84 209.51 175.53 209.98 175.12 210.35C174.59 210.85 173.87 211.03 173.19 211.23C172.43 211.46 171.66 211.68 170.88 211.89C167.84 212.7 164.75 213.33 161.64 213.77L161.01 213.4L158.41 217.74L155.87 213.34L155.43 213.6C153.49 212.65 151.46 211.95 149.34 211.55C147.45 211.19 145.39 210.94 143.84 209.74L144.28 209.01C143.46 208.52 140.38 206.88 136.98 205.1L138.66 203.53C138.61 203.47 133.23 197.74 120.94 184.76C110.29 173.52 110.84 168.85 111 168.18C112.55 166.84 113.88 165.2 114.45 162.95C115.87 157.26 125.76 158.1 127.6 158.31C128.37 159.95 129.56 161.37 130.85 162.65C132.68 164.47 134.65 166.19 136.64 167.82C138.77 169.56 141.02 171.14 143.51 172.3C145.98 173.45 148.6 174.31 151.24 175C156.38 176.33 161.77 176.91 167.05 176.18C172.47 175.44 177.32 173.05 181.91 170.16C184.42 168.58 186.64 166.71 188.5 164.38C190.18 162.28 191.66 160.02 193.53 158.08C195.75 157.88 204.09 157.51 205.45 162.95C206.01 165.2 207.35 166.84 208.9 168.18Z" fill="#483832"/>
<path d="M119.13 186.48C129.58 197.52 135.02 203.3 136.44 204.81C131.74 202.35 126.64 199.71 126.23 199.5C124.79 198.88 120.62 196.33 116.58 193.86C111.84 190.96 107.37 188.23 105.63 187.52C103.65 186.72 103.47 185.17 103.3 182.28C103.23 181.17 103.16 179.9 102.89 178.63C102.07 174.68 104.24 172.98 107.85 170.52C108.07 170.37 108.3 170.21 108.53 170.05C109 172.95 111.22 178.14 119.13 186.48Z" fill="#715B53"/>
<path d="M110.65 193.18L110.2 193.94C109.88 193.8 109.52 193.79 109.18 193.93C108.85 194.07 101.45 197.28 97.4 200.5C95.71 199.85 94.11 199.55 92.74 199.44C99.41 194.56 104.92 191.78 106.78 190.91C107.86 191.52 109.21 192.31 110.65 193.18Z" fill="#DAB797"/>
<path d="M119.15 199.39H110.02C109.33 199.39 108.77 199.95 108.77 200.64C108.77 201.33 109.33 201.89 110.02 201.89H119.15C119.84 201.89 120.4 201.33 120.4 200.64C120.4 199.95 119.84 199.39 119.15 199.39ZM83.51 208.83C82.82 208.83 82.26 209.39 82.26 210.08C82.26 210.77 82.82 211.33 83.51 211.33H99.65C100.34 211.33 100.9 210.77 100.9 210.08C100.9 209.39 100.34 208.83 99.65 208.83H83.51ZM104.21 254.16C104.21 253.47 103.66 252.91 102.96 252.91H63.74C63.05 252.91 62.49 253.47 62.49 254.16C62.49 254.85 63.05 255.41 63.74 255.41H102.96C103.66 255.41 104.21 254.85 104.21 254.16ZM104.21 239.71C104.21 239.02 103.66 238.46 102.96 238.46H68.53C67.83 238.46 67.28 239.02 67.28 239.71C67.28 240.4 67.83 240.96 68.53 240.96H102.96C103.66 240.96 104.21 240.4 104.21 239.71ZM104.21 225.26C104.21 224.57 103.66 224.01 102.96 224.01H74.99C74.3 224.01 73.74 224.57 73.74 225.26C73.74 225.95 74.3 226.51 74.99 226.51H102.96C103.66 226.51 104.21 225.95 104.21 225.26ZM136.75 209.22C136.75 208.53 136.19 207.97 135.5 207.97H110.02C109.33 207.97 108.77 208.53 108.77 209.22C108.77 209.91 109.33 210.47 110.02 210.47H135.5C136.19 210.47 136.75 209.91 136.75 209.22ZM58.79 264.75C57.8 233.73 75.11 213.42 89.35 202.03C91.11 201.75 98.13 201.19 103.57 208.32C103.82 208.64 104.19 208.81 104.57 208.81C104.83 208.81 105.1 208.72 105.32 208.55C105.87 208.13 105.98 207.35 105.56 206.8C103.77 204.46 101.84 202.84 99.94 201.72C103.88 198.96 110.1 196.26 110.17 196.23C110.8 195.95 111.1 195.22 110.82 194.58C110.69 194.29 110.47 194.07 110.2 193.94L110.65 193.18C112.15 194.08 113.75 195.05 115.28 195.99C119.58 198.62 123.64 201.1 125.16 201.75C125.32 201.84 141.07 209.99 142.99 211.15L143.32 210.6C144.77 211.67 146.6 212.06 148.37 212.38C150.46 212.76 152.45 213.34 154.37 214.21L153.71 214.59L155.33 217.39H114.92C114.23 217.39 113.67 217.95 113.67 218.64C113.67 219.33 114.23 219.89 114.92 219.89H156.07C156.29 219.89 156.49 219.82 156.67 219.72L157.14 220.54V232.3C156.93 231.92 156.54 231.65 156.07 231.65H114.92C114.23 231.65 113.67 232.21 113.67 232.9C113.67 233.59 114.23 234.15 114.92 234.15H156.07C156.54 234.15 156.93 233.89 157.14 233.51V246.56C156.93 246.18 156.54 245.92 156.07 245.92H114.92C114.23 245.92 113.67 246.48 113.67 247.17C113.67 247.86 114.23 248.42 114.92 248.42H156.07C156.54 248.42 156.93 248.15 157.14 247.77V259.48C156.93 259.1 156.54 258.83 156.07 258.83H114.92C114.23 258.83 113.67 259.39 113.67 260.08C113.67 260.77 114.23 261.33 114.92 261.33H156.07C156.54 261.33 156.93 261.07 157.14 260.69V263.69L107.73 264.22C112.44 247.68 107.49 218.2 107.27 216.91C107.15 216.23 106.51 215.78 105.83 215.89C105.15 216.01 104.69 216.65 104.8 217.33C104.86 217.65 110.02 248.45 105.1 264.25L58.79 264.75Z" fill="#DAB797"/>
<path d="M256.5 252.91C257.19 252.91 257.75 253.47 257.75 254.16C257.75 254.85 257.19 255.41 256.5 255.41H217.28C216.59 255.41 216.03 254.85 216.03 254.16C216.03 253.47 216.59 252.91 217.28 252.91H256.5Z" fill="black"/>
<path d="M251.72 238.46C252.41 238.46 252.97 239.02 252.97 239.71C252.97 240.4 252.41 240.96 251.72 240.96H217.28C216.59 240.96 216.03 240.4 216.03 239.71C216.03 239.02 216.59 238.46 217.28 238.46H251.72Z" fill="black"/>
<path d="M245.25 224.01C245.94 224.01 246.5 224.57 246.5 225.26C246.5 225.95 245.94 226.51 245.25 226.51H217.28C216.59 226.51 216.03 225.95 216.03 225.26C216.03 224.57 216.59 224.01 217.28 224.01H245.25Z" fill="black"/>
<path d="M237.99 210.08C237.99 210.77 237.43 211.33 236.74 211.33H220.59C219.9 211.33 219.34 210.77 219.34 210.08C219.34 209.39 219.9 208.83 220.59 208.83H236.74C237.43 208.83 237.99 209.39 237.99 210.08Z" fill="black"/>
<path d="M210.22 199.39C210.91 199.39 211.47 199.95 211.47 200.64C211.47 201.33 210.91 201.89 210.22 201.89H201.09C200.4 201.89 199.84 201.33 199.84 200.64C199.84 199.95 200.4 199.39 201.09 199.39H210.22Z" fill="black"/>
<path d="M210.22 207.97C210.91 207.97 211.47 208.53 211.47 209.22C211.47 209.91 210.91 210.47 210.22 210.47H184.74C184.05 210.47 183.49 209.91 183.49 209.22C183.49 208.53 184.05 207.97 184.74 207.97H210.22Z" fill="black"/>
<path d="M205.32 217.39C206.01 217.39 206.57 217.95 206.57 218.64C206.57 219.33 206.01 219.89 205.32 219.89H164.17C163.48 219.89 162.92 219.33 162.92 218.64C162.92 217.95 163.48 217.39 164.17 217.39H205.32Z" fill="black"/>
<path d="M205.32 231.65C206.01 231.65 206.57 232.21 206.57 232.9C206.57 233.59 206.01 234.15 205.32 234.15H164.17C163.48 234.15 162.92 233.59 162.92 232.9C162.92 232.21 163.48 231.65 164.17 231.65H205.32Z" fill="black"/>
<path d="M205.32 245.92C206.01 245.92 206.57 246.48 206.57 247.17C206.57 247.86 206.01 248.42 205.32 248.42H164.17C163.48 248.42 162.92 247.86 162.92 247.17C162.92 246.48 163.48 245.92 164.17 245.92H205.32Z" fill="black"/>
<path d="M205.32 258.83C206.01 258.83 206.57 259.39 206.57 260.08C206.57 260.77 206.01 261.33 205.32 261.33H164.17C163.48 261.33 162.92 260.77 162.92 260.08C162.92 259.39 163.48 258.83 164.17 258.83H205.32Z" fill="black"/>
<path d="M199.25 225.84C199.25 224.62 198.25 223.63 197.03 223.63H182.11C180.89 223.63 179.9 224.62 179.9 225.84C179.9 227.06 180.89 228.06 182.11 228.06H197.03C198.25 228.06 199.25 227.07 199.25 225.84ZM201.75 225.84C201.75 228.44 199.63 230.56 197.03 230.56H182.11C179.51 230.56 177.4 228.44 177.4 225.84C177.4 223.24 179.51 221.13 182.11 221.13H197.03C199.63 221.13 201.75 223.24 201.75 225.84Z" fill="black"/>
<path d="M156.07 258.83C156.54 258.83 156.93 259.1 157.14 259.48V260.69C156.93 261.07 156.54 261.33 156.07 261.33H114.92C114.23 261.33 113.67 260.77 113.67 260.08C113.67 259.39 114.23 258.83 114.92 258.83H156.07Z" fill="black"/>
<path d="M156.07 245.92C156.54 245.92 156.93 246.18 157.14 246.56V247.77C156.93 248.15 156.54 248.42 156.07 248.42H114.92C114.23 248.42 113.67 247.86 113.67 247.17C113.67 246.48 114.23 245.92 114.92 245.92H156.07Z" fill="black"/>
<path d="M156.07 231.65C156.54 231.65 156.93 231.92 157.14 232.3V233.51C156.93 233.89 156.54 234.15 156.07 234.15H114.92C114.23 234.15 113.67 233.59 113.67 232.9C113.67 232.21 114.23 231.65 114.92 231.65H156.07Z" fill="black"/>
<path d="M135.5 207.97C136.19 207.97 136.75 208.53 136.75 209.22C136.75 209.91 136.19 210.47 135.5 210.47H110.02C109.33 210.47 108.77 209.91 108.77 209.22C108.77 208.53 109.33 207.97 110.02 207.97H135.5Z" fill="black"/>
<path d="M119.15 199.39C119.84 199.39 120.4 199.95 120.4 200.64C120.4 201.33 119.84 201.89 119.15 201.89H110.02C109.33 201.89 108.77 201.33 108.77 200.64C108.77 199.95 109.33 199.39 110.02 199.39H119.15Z" fill="black"/>
<path d="M102.96 224.01C103.66 224.01 104.21 224.57 104.21 225.26C104.21 225.95 103.66 226.51 102.96 226.51H74.99C74.3 226.51 73.74 225.95 73.74 225.26C73.74 224.57 74.3 224.01 74.99 224.01H102.96Z" fill="black"/>
<path d="M102.96 238.46C103.66 238.46 104.21 239.02 104.21 239.71C104.21 240.4 103.66 240.96 102.96 240.96H68.53C67.83 240.96 67.28 240.4 67.28 239.71C67.28 239.02 67.83 238.46 68.53 238.46H102.96Z" fill="black"/>
<path d="M102.96 252.91C103.66 252.91 104.21 253.47 104.21 254.16C104.21 254.85 103.66 255.41 102.96 255.41H63.74C63.05 255.41 62.49 254.85 62.49 254.16C62.49 253.47 63.05 252.91 63.74 252.91H102.96Z" fill="black"/>
<path d="M99.65 208.83C100.34 208.83 100.9 209.39 100.9 210.08C100.9 210.77 100.34 211.33 99.65 211.33H83.51C82.82 211.33 82.26 210.77 82.26 210.08C82.26 209.39 82.82 208.83 83.51 208.83H99.65Z" fill="black"/>
<path d="M103.3 182.28C103.47 185.17 103.65 186.72 105.63 187.52C107.37 188.23 111.84 190.96 116.58 193.86C120.62 196.33 124.79 198.88 126.23 199.5C126.64 199.71 131.74 202.35 136.44 204.81C135.02 203.3 129.58 197.52 119.13 186.48C111.22 178.14 109 172.95 108.53 170.05C108.3 170.21 108.07 170.37 107.85 170.52C104.24 172.98 102.07 174.68 102.89 178.63C103.16 179.9 103.23 181.17 103.3 182.28ZM203.32 193.86C208.05 190.96 212.53 188.23 214.27 187.52C216.24 186.72 216.43 185.17 216.6 182.28C216.67 181.17 216.74 179.9 217 178.63C217.82 174.68 215.66 172.98 212.05 170.52C211.82 170.37 211.59 170.21 211.36 170.05C210.9 172.95 208.67 178.14 200.77 186.48C190.48 197.34 184.2 203.14 182.36 204.8C187.35 202.43 193.24 199.69 193.64 199.51C195.1 198.88 199.28 196.33 203.32 193.86ZM173.69 212.13C172.92 212.36 172.15 212.58 171.38 212.79C168.61 213.54 165.8 214.12 162.97 214.57L163.16 214.68L159.64 220.55V263.65H160.12L161.83 263.64V263.68L212.51 264.22C207.81 247.68 212.75 218.2 212.97 216.91C213.09 216.23 213.74 215.78 214.41 215.89C215.1 216.01 215.55 216.65 215.44 217.33C215.38 217.65 210.22 248.45 215.14 264.25L261.45 264.75C262.44 233.73 245.13 213.41 230.88 202.02C229.78 201.84 226.69 201.55 223.19 203.06C223.16 203.08 223.13 203.09 223.09 203.11C220.98 204.04 218.72 205.63 216.67 208.32C216.42 208.64 216.05 208.81 215.68 208.81C215.41 208.81 215.14 208.72 214.92 208.55C214.37 208.13 214.26 207.35 214.68 206.8C216.47 204.46 218.4 202.84 220.3 201.72C216.36 198.95 210.14 196.26 210.07 196.23C209.44 195.95 209.14 195.22 209.42 194.58C209.69 193.95 210.43 193.66 211.06 193.93C211.39 194.07 218.79 197.28 222.84 200.5C224.53 199.85 226.13 199.55 227.5 199.44C220.59 194.38 214.92 191.59 213.28 190.82C211.07 192.05 207.7 194.11 204.62 195.99C200.32 198.62 196.26 201.1 194.66 201.79C190.28 203.82 178.48 209.34 176.91 210.29L176.72 209.97C176.34 210.44 176 210.96 175.53 211.32C174.99 211.73 174.33 211.93 173.69 212.13ZM155.87 213.34L158.41 217.74L161.01 213.4L161.64 213.77C164.75 213.33 167.84 212.7 170.88 211.89C171.66 211.68 172.43 211.46 173.19 211.23C173.87 211.03 174.59 210.85 175.12 210.35C175.53 209.98 175.84 209.51 176.18 209.09L175.62 208.15C176.34 207.71 178.77 206.52 181.63 205.15L180.14 203.44C180.2 203.38 186.72 197.68 198.95 184.76C209.61 173.52 209.05 168.85 208.9 168.18C207.35 166.84 206.01 165.2 205.45 162.95C204.09 157.51 195.75 157.88 193.53 158.08C191.66 160.02 190.18 162.28 188.5 164.38C186.64 166.71 184.42 168.58 181.91 170.16C177.32 173.05 172.47 175.44 167.05 176.18C161.77 176.91 156.38 176.33 151.24 175C148.6 174.31 145.98 173.45 143.51 172.3C141.02 171.14 138.77 169.56 136.64 167.82C134.65 166.19 132.68 164.47 130.85 162.65C129.56 161.37 128.37 159.95 127.6 158.31C125.76 158.1 115.87 157.26 114.45 162.95C113.88 165.2 112.55 166.84 111 168.18C110.84 168.85 110.29 173.52 120.94 184.76C133.23 197.74 138.61 203.47 138.66 203.53L136.98 205.1C140.38 206.88 143.46 208.52 144.28 209.01L143.84 209.74C145.39 210.94 147.45 211.19 149.34 211.55C151.46 211.95 153.49 212.65 155.43 213.6L155.87 213.34ZM58.79 264.75L105.1 264.25C110.02 248.45 104.86 217.65 104.8 217.33C104.69 216.65 105.15 216.01 105.83 215.89C106.51 215.78 107.15 216.23 107.27 216.91C107.49 218.2 112.44 247.68 107.73 264.22L157.14 263.69V220.54L156.67 219.72C156.49 219.82 156.29 219.89 156.07 219.89H114.92C114.23 219.89 113.67 219.33 113.67 218.64C113.67 217.95 114.23 217.39 114.92 217.39H155.33L153.71 214.59L154.37 214.21C152.45 213.34 150.46 212.76 148.37 212.38C146.6 212.06 144.77 211.67 143.32 210.6L142.99 211.15C141.07 209.99 125.32 201.84 125.16 201.75C123.64 201.1 119.58 198.62 115.28 195.99C113.75 195.05 112.15 194.08 110.65 193.18C109.21 192.31 107.86 191.52 106.78 190.91C104.92 191.78 99.41 194.56 92.74 199.44C94.11 199.55 95.71 199.85 97.4 200.5C101.45 197.28 108.85 194.07 109.18 193.93C109.52 193.79 109.88 193.8 110.2 193.94C110.47 194.07 110.69 194.29 110.82 194.58C111.1 195.22 110.8 195.95 110.17 196.23C110.1 196.26 103.88 198.96 99.94 201.72C101.84 202.84 103.77 204.46 105.56 206.8C105.98 207.35 105.87 208.13 105.32 208.55C105.1 208.72 104.83 208.81 104.57 208.81C104.19 208.81 103.82 208.64 103.57 208.32C98.13 201.19 91.11 201.75 89.35 202.03C75.11 213.42 57.8 233.73 58.79 264.75ZM160.12 266.16L56.4 267.28L56.35 266.08C55 237.5 68.71 217.87 80.44 206.43C89.96 197.16 99.55 191.72 103.96 189.49C101.14 187.94 100.96 185.03 100.8 182.43C100.74 181.35 100.67 180.23 100.44 179.14C99.24 173.35 103.07 170.75 106.44 168.46C107.41 167.8 108.35 167.16 109.18 166.46C109.18 166.46 109.18 166.453 109.18 166.44H109.19C110.52 165.33 111.58 164.06 112.01 162.34C114.12 153.91 127.68 155.79 128.25 155.88L128.11 156.87C128.9 159.31 130.71 161.21 132.57 162.92C134.69 164.88 136.85 166.84 139.18 168.55C143.48 171.7 148.58 173.47 153.76 174.57C158.82 175.63 164.13 175.9 169.2 174.79C171.8 174.22 174.25 173.27 176.6 172.03C178.91 170.82 181.21 169.54 183.31 168.01C185.41 166.47 187.12 164.59 188.67 162.51C190.01 160.73 191.31 158.91 192.86 157.31L192.63 155.66C193.16 155.58 205.76 153.91 207.86 162.34C208.29 164.06 209.36 165.33 210.69 166.45H210.7C211.54 167.15 212.48 167.79 213.44 168.45C216.82 170.74 220.64 173.34 219.44 179.13C219.22 180.22 219.15 181.34 219.08 182.42C218.93 184.97 218.75 187.81 216.08 189.39C220.41 191.55 230.13 197.01 239.79 206.42C251.52 217.86 265.23 237.49 263.89 266.07L263.83 267.27L160.11 266.15L160.12 266.16Z" fill="black"/>
</g>
<defs>
<clipPath id="clip0_9_7796">
<rect width="208.23" height="222.53" fill="white" transform="translate(56 45)"/>
</clipPath>
</defs>
</svg>
