<svg width="320" height="320" viewBox="0 0 320 320" fill="none" xmlns="http://www.w3.org/2000/svg">
<g clip-path="url(#clip0_9_7826)">
<path d="M263 267.53H57.55C62.91 250.19 82 218.64 103.87 212.6C114.71 209.62 122.43 205.67 127.65 202.24C128.22 206.95 132.42 225.51 163.49 225.51C176.24 225.51 185.68 222.33 191.53 216.04C196.05 211.18 197.13 206.06 197.35 203.21C202.55 206.42 209.81 209.92 219.54 212.6C242.05 218.81 260.63 251.08 263 267.53Z" fill="#31333A"/>
<path d="M183.08 210.41C186.46 206.45 188.26 201.22 187.98 196.02C189.31 197.35 191.63 199.41 195.07 201.74C194.92 204.22 194.06 209.67 189.67 214.37C184.3 220.1 175.5 223.01 163.49 223.01C130.66 223.01 130.07 201.48 130.06 200.59C132.51 198.8 134.22 197.24 135.28 196.19C135.99 201.11 137.01 206.12 140.49 209.89C142.37 211.92 144.64 213.81 147.02 215.23C149.48 216.71 152.26 217.45 155.09 217.84C164.69 219.16 176.34 218.28 183.08 210.41Z" fill="#31333A"/>
<path d="M103.21 210.19C125.83 203.95 134.56 193.29 134.65 193.18L135.02 192.72H135.14C135.19 193.32 135.36 193.95 135.67 194.59C135.87 194.58 136.06 194.68 136.1 194.95C136.5 197.78 136.91 200.63 137.83 203.35C138.78 206.17 140.37 208.52 142.56 210.53C144.55 212.36 146.73 214.13 149.21 215.25C151.73 216.39 154.51 216.84 157.24 217.08C162.06 217.51 167.02 217.43 171.72 216.15C176.33 214.9 180.55 212.37 183.35 208.44C186.07 204.64 187.38 199.93 186.96 195.28C186.91 194.81 187.42 194.69 187.73 194.9C188.13 194.16 188.28 193.36 188.23 192.56L188.52 192.93C188.64 193.08 197.71 203.99 220.2 210.19C243.64 216.66 263.93 250.12 265.65 268.66L265.78 270.03H54.25L54.68 268.45C59.17 252.05 78.61 216.98 103.21 210.19ZM127.65 202.24C122.43 205.67 114.71 209.62 103.87 212.6C82 218.64 62.91 250.19 57.55 267.53H263C260.63 251.08 242.05 218.81 219.54 212.6C209.81 209.92 202.55 206.42 197.35 203.21C197.13 206.06 196.05 211.18 191.53 216.04C185.68 222.33 176.24 225.51 163.49 225.51C132.42 225.51 128.22 206.95 127.65 202.24ZM135.28 196.19C134.22 197.24 132.51 198.8 130.06 200.59C130.07 201.48 130.66 223.01 163.49 223.01C175.5 223.01 184.3 220.1 189.67 214.37C194.06 209.67 194.92 204.22 195.07 201.74C191.63 199.41 189.31 197.35 187.98 196.02C188.26 201.22 186.46 206.45 183.08 210.41C176.34 218.28 164.69 219.16 155.09 217.84C152.26 217.45 149.48 216.71 147.02 215.23C144.64 213.81 142.37 211.92 140.49 209.89C137.01 206.12 135.99 201.11 135.28 196.19Z" fill="black"/>
</g>
<defs>
<clipPath id="clip0_9_7826">
<rect width="212.04" height="220.27" fill="white" transform="translate(54 50)"/>
</clipPath>
</defs>
</svg>
