<svg width="320" height="320" viewBox="0 0 320 320" fill="none" xmlns="http://www.w3.org/2000/svg">
<path d="M193.66 200.58C193.66 202.17 193.36 208.69 188.22 214.19C182.85 219.93 174.05 222.83 162.04 222.83C131.41 222.83 128.85 204.59 128.64 201.42C131.4 199.53 133.36 197.85 134.66 196.61C134.86 198.69 135.35 200.72 136.15 202.65C137.16 205.12 138.63 207.29 140.38 209.29C142.15 211.31 144.1 213.22 146.49 214.49C148.94 215.8 151.68 216.64 154.37 217.27C159.81 218.54 165.59 218.73 170.99 217.18C175.45 215.89 179.56 213.35 182.58 209.8C184.18 207.91 185.47 205.76 186.29 203.41C186.72 202.16 186.97 200.88 187.19 199.58C187.39 198.39 187.62 197.14 188.26 196.1C189.41 197.23 191.18 198.79 193.66 200.58Z" fill="#1A4730"/>
<path d="M263.01 267.35H57.5601C62.9201 250.01 82.0101 218.46 103.88 212.43C113.82 209.68 121.15 206.13 126.33 202.92C127.28 208.67 132.59 225.33 162.04 225.33C174.79 225.33 184.23 222.15 190.08 215.86C194.72 210.87 195.84 205.26 196.09 202.24C201.36 205.65 209.01 209.52 219.55 212.43C242.06 218.64 260.63 250.9 263.01 267.35ZM177.96 242.49H175.46C175.46 250.19 169.2 256.45 161.51 256.45C153.82 256.45 147.55 250.19 147.55 242.49H145.05C145.05 251.57 152.43 258.95 161.51 258.95C170.59 258.95 177.96 251.57 177.96 242.49ZM170.95 242.49C170.95 239.74 169.62 237.51 167.98 237.51C166.34 237.51 165.01 239.74 165.01 242.49C165.01 245.24 166.34 247.48 167.98 247.48C169.62 247.48 170.95 245.25 170.95 242.49ZM158.55 242.49C158.55 239.74 157.22 237.51 155.58 237.51C153.94 237.51 152.61 239.74 152.61 242.49C152.61 245.24 153.94 247.48 155.58 247.48C157.22 247.48 158.55 245.25 158.55 242.49Z" fill="#1A4730"/>
<path d="M167.98 237.51C169.62 237.51 170.95 239.74 170.95 242.49C170.95 245.24 169.62 247.48 167.98 247.48C166.34 247.48 165.01 245.25 165.01 242.49C165.01 239.73 166.34 237.51 167.98 237.51Z" fill="#1A4730"/>
<path d="M177.96 242.49C177.96 251.57 170.58 258.95 161.51 258.95C152.44 258.95 145.05 251.57 145.05 242.49H147.55C147.55 250.19 153.81 256.45 161.51 256.45C169.21 256.45 175.46 250.19 175.46 242.49H177.96Z" fill="#1A4730"/>
<path d="M155.58 237.51C157.22 237.51 158.55 239.74 158.55 242.49C158.55 245.24 157.22 247.48 155.58 247.48C153.94 247.48 152.61 245.25 152.61 242.49C152.61 239.73 153.94 237.51 155.58 237.51Z" fill="#1A4730"/>
<path d="M162.04 225.33C132.59 225.33 127.28 208.67 126.33 202.92C121.15 206.13 113.82 209.68 103.88 212.43C82.01 218.46 62.92 250.01 57.56 267.35H263.01C260.63 250.9 242.06 218.64 219.55 212.43C209.01 209.52 201.36 205.65 196.09 202.24C195.84 205.26 194.72 210.87 190.08 215.86C184.23 222.15 174.79 225.33 162.04 225.33ZM128.64 201.42C128.85 204.59 131.41 222.83 162.04 222.83C174.05 222.83 182.85 219.93 188.22 214.19C193.36 208.69 193.66 202.17 193.66 200.58C191.18 198.79 189.41 197.23 188.26 196.1C187.62 197.14 187.39 198.39 187.19 199.58C186.97 200.88 186.72 202.16 186.29 203.41C185.47 205.76 184.18 207.91 182.58 209.8C179.56 213.35 175.45 215.89 170.99 217.18C165.59 218.73 159.81 218.54 154.37 217.27C151.68 216.64 148.94 215.8 146.49 214.49C144.1 213.22 142.15 211.31 140.38 209.29C138.63 207.29 137.16 205.12 136.15 202.65C135.35 200.72 134.86 198.69 134.66 196.61C133.36 197.85 131.4 199.53 128.64 201.42ZM135.58 195.7C135.74 198.35 136.39 200.96 137.54 203.35C138.82 206.02 140.71 208.33 142.79 210.42C144.71 212.34 146.89 213.76 149.43 214.72C151.98 215.69 154.63 216.4 157.32 216.83C162.56 217.68 168.09 217.41 173.05 215.42C177.14 213.78 180.83 210.91 183.27 207.23C184.47 205.42 185.37 203.43 185.86 201.31C186.32 199.29 186.4 197.15 187.55 195.39C187.43 195.26 187.31 195.14 187.21 195.03C187.88 194.2 188.22 193.31 188.28 192.44L188.53 192.75C188.65 192.9 197.71 203.81 220.21 210.02C243.64 216.48 263.94 249.94 265.66 268.48L265.79 269.85H54.25L54.69 268.27C59.17 251.87 78.61 216.8 103.22 210.02C125.75 203.8 134.57 193.11 134.66 193L135.03 192.54H136.12V193.3C136.01 193.91 136 194.55 136.09 195.16C135.95 195.31 135.78 195.5 135.58 195.7Z" fill="black"/>
<g clip-path="url(#clip0_9_7761)">
<path d="M148.85 243.864H145.3C145.131 243.864 145.029 243.727 145.029 243.6C145.029 243.483 145.114 243.382 145.3 243.382C145.3 243.382 145.789 243.346 145.789 242.979V237.437C145.789 237.063 145.264 237.063 145.264 237.063C145.085 237.063 145 236.945 145 236.825C145 236.698 145.094 236.569 145.264 236.569H148.559C149.649 236.569 150.435 236.952 150.435 238.192C150.435 239.231 149.966 239.678 149.365 239.76C150.014 239.833 150.961 240.581 150.941 241.703C150.922 242.723 150.21 243.864 148.847 243.864H148.85ZM148.276 237.18L147.506 237.171C147.346 237.171 147.281 237.235 147.281 237.39L147.271 239.586H148.227C148.922 239.586 149.193 238.975 149.193 238.382C149.203 237.745 148.93 237.178 148.273 237.178L148.276 237.18ZM148.295 240.27H147.281V243.005C147.281 243.151 147.365 243.215 147.477 243.215H148.302C149.363 243.215 149.552 242.422 149.542 241.618C149.542 240.851 149.111 240.268 148.293 240.268L148.295 240.27Z" fill="white"/>
<path d="M156.096 242.149C156.096 242.834 155.505 244 153.76 244C152.389 244 151.339 242.897 151.339 241.446C151.339 239.995 152.409 238.902 153.76 238.902C155.111 238.902 155.731 239.713 155.881 240.724L152.915 242.001C152.98 242.822 153.421 243.224 154.07 243.224C154.595 243.224 155.036 242.888 155.036 242.521C155.036 242.42 154.961 242.312 154.847 242.312C154.781 242.312 154.735 242.366 154.677 242.366C154.612 242.366 154.556 242.312 154.556 242.175C154.556 241.855 154.837 241.418 155.346 241.418C155.59 241.418 155.842 241.519 155.985 241.738C156.06 241.855 156.099 241.994 156.099 242.149H156.096ZM154.595 240.317C154.491 239.852 154.135 239.68 153.871 239.68C153.392 239.68 152.915 240.118 152.886 241.056L154.595 240.317Z" fill="white"/>
<path d="M167.306 237.601C167.306 238.112 166.94 238.678 166.272 238.678C165.878 238.678 165.577 238.422 165.577 238.26C165.577 238.06 165.766 238.187 165.766 237.924C165.766 237.66 165.541 237.505 165.052 237.505C164.246 237.505 163.081 238.034 162.226 239.128L165.802 243.003C166.103 243.332 166.338 243.377 166.451 243.377C166.49 243.377 166.517 243.367 166.517 243.367C166.713 243.377 166.798 243.485 166.807 243.596C166.807 243.732 166.703 243.868 166.517 243.868H163.476C163.297 243.868 163.176 243.751 163.176 243.621C163.176 243.219 163.861 243.52 163.861 243.13C163.861 243.066 163.822 242.984 163.73 242.883L161.401 240.303C161.297 240.513 161.139 240.778 161.091 240.941V242.975C161.091 243.358 161.655 243.377 161.655 243.377C161.805 243.377 161.909 243.504 161.909 243.624C161.909 243.751 161.834 243.871 161.655 243.871H159.074C158.905 243.871 158.82 243.734 158.82 243.607C158.82 243.49 158.895 243.389 159.074 243.389C159.074 243.389 159.599 243.353 159.599 242.986V237.444C159.599 237.079 159.074 237.079 159.055 237.079C158.895 237.079 158.81 236.952 158.81 236.823C158.81 236.705 158.895 236.576 159.081 236.576H161.643C161.822 236.576 161.897 236.677 161.897 236.785C161.897 237.315 161.081 236.814 161.081 237.47V239.339C161.597 238.236 162.611 237.26 163.56 236.741C164.209 236.386 164.827 236.294 165.316 236.294C165.691 236.294 166.967 236.303 167.26 237.289C167.289 237.39 167.306 237.498 167.306 237.608V237.601Z" fill="white"/>
<path d="M170.115 243.864H167.87C167.73 243.864 167.655 243.746 167.655 243.617C167.655 243.499 167.72 243.379 167.87 243.379C167.87 243.379 168.245 243.344 168.245 242.977V239.904C168.245 239.53 167.906 239.53 167.906 239.53C167.727 239.53 167.643 239.412 167.643 239.283C167.643 239.165 167.747 239.036 167.906 239.036L169.737 239.027L169.727 242.965C169.727 243.349 170.112 243.368 170.112 243.368C170.272 243.368 170.337 243.504 170.337 243.631C170.328 243.748 170.253 243.859 170.112 243.859L170.115 243.864ZM168.923 238.54C168.398 238.54 167.974 238.211 167.974 237.801C167.974 237.392 168.396 237.063 168.923 237.063C169.451 237.063 169.863 237.392 169.863 237.801C169.863 238.211 169.439 238.54 168.923 238.54Z" fill="white"/>
<path d="M176.262 243.864H174.017C173.867 243.864 173.792 243.737 173.792 243.607C173.792 243.478 173.858 243.379 174.017 243.379C174.017 243.379 174.393 243.344 174.393 242.977V240.642C174.393 240.167 174.102 239.831 173.548 239.831C173.153 239.831 172.938 239.986 172.712 240.195L172.703 242.968C172.703 243.351 173.088 243.37 173.088 243.37C173.228 243.37 173.313 243.48 173.313 243.598C173.313 243.725 173.238 243.861 173.088 243.861H170.843C170.703 243.861 170.628 243.744 170.628 243.614C170.628 243.485 170.693 243.377 170.843 243.377C170.843 243.377 171.219 243.342 171.219 242.975V239.901C171.219 239.527 170.88 239.527 170.88 239.527C170.7 239.527 170.618 239.41 170.618 239.29C170.618 239.163 170.713 239.034 170.88 239.034L172.7 239.024L172.71 239.516C172.926 239.269 173.34 238.958 174.08 238.958C174.935 238.958 175.874 239.269 175.874 240.353V242.961C175.874 243.353 176.259 243.363 176.259 243.363C176.4 243.363 176.475 243.464 176.494 243.581C176.494 243.708 176.429 243.854 176.259 243.854L176.262 243.864Z" fill="white"/>
<path d="M181.736 237.545C181.736 237.545 181.407 237.545 181.407 237.919V242.979C181.407 243.344 181.782 243.381 181.782 243.381C181.913 243.381 181.998 243.473 181.998 243.591C181.998 243.727 181.922 243.863 181.782 243.863H179.913L179.923 243.553C179.726 243.737 179.283 243.955 178.843 243.955C177.509 243.955 176.683 242.77 176.683 241.392C176.683 240.014 177.378 238.904 178.712 238.904C179.153 238.904 179.567 239.031 179.913 239.24L179.923 237.919C179.923 237.281 179.283 237.735 179.293 237.298C179.293 237.18 179.388 237.051 179.564 237.051H181.734C181.903 237.051 181.998 237.178 181.998 237.298C181.998 237.418 181.932 237.545 181.734 237.545H181.736ZM179.145 239.661C178.421 239.661 178.235 240.418 178.235 241.376C178.235 242.333 178.441 243.099 179.136 243.099C179.736 243.099 179.896 242.26 179.896 241.413C179.896 240.567 179.717 239.664 179.145 239.664V239.661Z" fill="white"/>
</g>
<defs>
<clipPath id="clip0_9_7761">
<rect width="37" height="12" fill="white" transform="translate(145 232)"/>
</clipPath>
</defs>
</svg>
